<svg width="24" height="24" viewBox="0 0 24 24" fill="none" xmlns="http://www.w3.org/2000/svg">
<path d="M2.57355 8.46249L11.2325 4.13349C11.3158 4.09194 11.4075 4.07031 11.5005 4.07031C11.5936 4.07031 11.6853 4.09194 11.7685 4.13349L20.4275 8.46349C20.5271 8.51336 20.6109 8.58995 20.6694 8.6847C20.7279 8.77945 20.7589 8.88862 20.7589 8.99999C20.7589 9.11136 20.7279 9.22053 20.6694 9.31528C20.6109 9.41003 20.5271 9.48663 20.4275 9.53649L11.7685 13.8655C11.6853 13.907 11.5936 13.9287 11.5005 13.9287C11.4075 13.9287 11.3158 13.907 11.2325 13.8655L2.57355 9.53549C2.47397 9.48563 2.39023 9.40903 2.33171 9.31428C2.27318 9.21953 2.24219 9.11036 2.24219 8.99899C2.24219 8.88762 2.27318 8.77845 2.33171 8.6837C2.39023 8.58895 2.47397 8.51236 2.57355 8.46249Z" stroke="#6610F2" stroke-width="1.5" stroke-linecap="round" stroke-linejoin="round"/>
<path d="M22.5 13V9.5L20.5 8.5M4.5 10.5V15.912C4.49993 16.2904 4.60719 16.661 4.80933 16.9809C5.01148 17.3007 5.30021 17.5567 5.642 17.719L10.642 20.093C10.9101 20.2203 11.2032 20.2864 11.5 20.2864C11.7968 20.2864 12.0899 20.2203 12.358 20.093L17.358 17.719C17.6998 17.5567 17.9885 17.3007 18.1907 16.9809C18.3928 16.661 18.5001 16.2904 18.5 15.912V10.5" stroke="#6610F2" stroke-width="1.5" stroke-linecap="round" stroke-linejoin="round"/>
</svg>
