<svg width="16" height="17" viewBox="0 0 16 17" fill="none" xmlns="http://www.w3.org/2000/svg">
<path d="M5.12 12.5723L8 9.69226L10.88 12.5723L12 11.4523L9.11999 8.57226L12 5.69226L10.88 4.57226L8 7.45226L5.12 4.57226L4 5.69226L6.88 8.57226L4 11.4523L5.12 12.5723ZM8 16.5723C6.89333 16.5723 5.85333 16.3621 4.88 15.9419C3.90667 15.5216 3.06 14.9517 2.34 14.2323C1.62 13.5128 1.05013 12.6661 0.630401 11.6923C0.210668 10.7184 0.000534346 9.67839 1.01266e-06 8.57226C-0.00053232 7.46613 0.209601 6.42613 0.630401 5.45226C1.0512 4.4784 1.62107 3.63173 2.34 2.91226C3.05893 2.1928 3.9056 1.62293 4.88 1.20267C5.8544 0.782399 6.8944 0.572266 8 0.572266C9.10559 0.572266 10.1456 0.782399 11.12 1.20267C12.0944 1.62293 12.9411 2.1928 13.66 2.91226C14.3789 3.63173 14.9491 4.4784 15.3704 5.45226C15.7917 6.42613 16.0016 7.46613 16 8.57226C15.9984 9.67839 15.7883 10.7184 15.3696 11.6923C14.9509 12.6661 14.3811 13.5128 13.66 14.2323C12.9389 14.9517 12.0923 15.5219 11.12 15.9427C10.1477 16.3635 9.10773 16.5733 8 16.5723ZM8 14.9723C9.78666 14.9723 11.3 14.3523 12.54 13.1123C13.78 11.8723 14.4 10.3589 14.4 8.57226C14.4 6.78559 13.78 5.27226 12.54 4.03226C11.3 2.79226 9.78666 2.17226 8 2.17226C6.21333 2.17226 4.7 2.79226 3.46 4.03226C2.22 5.27226 1.6 6.78559 1.6 8.57226C1.6 10.3589 2.22 11.8723 3.46 13.1123C4.7 14.3523 6.21333 14.9723 8 14.9723Z" fill="#282828" fill-opacity="0.75"/>
</svg>
