<svg width="24" height="24" viewBox="0 0 24 24" fill="none" xmlns="http://www.w3.org/2000/svg">
<path d="M12.2299 6.55436C12.2107 6.50927 12.1786 6.47081 12.1377 6.44378C12.0968 6.41675 12.0489 6.40234 11.9999 6.40234C11.9509 6.40234 11.9029 6.41675 11.862 6.44378C11.8211 6.47081 11.7891 6.50927 11.7699 6.55436L11.2649 7.76636C11.2473 7.80866 11.2184 7.84531 11.1813 7.87229C11.1443 7.89927 11.1006 7.91556 11.0549 7.91936L9.74589 8.02436C9.69665 8.02826 9.64967 8.04666 9.61088 8.07724C9.57208 8.10781 9.54322 8.14919 9.52792 8.19615C9.51262 8.24312 9.51158 8.29356 9.52492 8.34112C9.53826 8.38867 9.56539 8.43121 9.60289 8.46336L10.5999 9.31736C10.6347 9.34735 10.6606 9.38636 10.6748 9.43012C10.6889 9.47387 10.6906 9.52067 10.6799 9.56536L10.3759 10.8414C10.3642 10.8895 10.367 10.9401 10.3841 10.9866C10.4012 11.0331 10.4317 11.0735 10.4718 11.1027C10.5118 11.1318 10.5597 11.1484 10.6092 11.1503C10.6587 11.1522 10.7077 11.1394 10.7499 11.1134L11.8699 10.4294C11.9091 10.4055 11.954 10.3929 11.9999 10.3929C12.0457 10.3929 12.0907 10.4055 12.1299 10.4294L13.2499 11.1134C13.2921 11.1394 13.3411 11.1522 13.3906 11.1503C13.4401 11.1484 13.4879 11.1318 13.528 11.1027C13.5681 11.0735 13.5986 11.0331 13.6157 10.9866C13.6328 10.9401 13.6356 10.8895 13.6239 10.8414L13.3189 9.56536C13.3081 9.52067 13.3099 9.47387 13.324 9.43012C13.3381 9.38636 13.364 9.34735 13.3989 9.31736L14.3969 8.46336C14.4347 8.43129 14.4622 8.38868 14.4757 8.34096C14.4893 8.29324 14.4883 8.24257 14.473 8.19539C14.4577 8.14822 14.4286 8.10667 14.3896 8.07604C14.3506 8.0454 14.3034 8.02707 14.2539 8.02336L12.9459 7.91936C12.9 7.91573 12.8561 7.89953 12.8189 7.87254C12.7816 7.84554 12.7526 7.80881 12.7349 7.76636L12.2299 6.55436Z" fill="#FFC107"/>
<path d="M8.704 3.5C8.516 3.5 8.377 3.5 8.253 3.515C7.76902 3.57523 7.32374 3.81023 7.0009 4.1758C6.67806 4.54136 6.49992 5.01229 6.5 5.5H5.46C5.243 5.499 4.853 5.497 4.535 5.709C4.141 5.971 4 6.434 4 7C4 9.658 5.464 11.41 7.283 12.374C7.538 12.826 7.844 13.247 8.187 13.623C9.194 14.723 10.572 15.5 12 15.5C13.915 15.5 15.772 14.217 16.758 12.372C18.578 11.405 20 9.65 20 7C20 6.434 19.859 5.971 19.465 5.709C19.147 5.497 18.757 5.499 18.539 5.499L18.5 5.5H17.5C17.5001 5.01244 17.3221 4.54164 16.9995 4.1761C16.6768 3.81056 16.2318 3.57546 15.748 3.515C15.623 3.5 15.484 3.5 15.296 3.5H8.704ZM7.5 6.002V6L7.501 5.738C7.501 5.503 7.501 5.43 7.509 5.377C7.53621 5.15606 7.63636 4.95052 7.79358 4.79293C7.95081 4.63534 8.15612 4.53472 8.377 4.507C8.431 4.501 8.503 4.5 8.737 4.5H15.264C15.499 4.5 15.571 4.501 15.624 4.508C15.8449 4.53521 16.0505 4.63536 16.2081 4.79258C16.3657 4.94981 16.4663 5.15512 16.494 5.376C16.5 5.43 16.501 5.503 16.501 5.736L16.489 9.498V9.5C16.4861 10.3017 16.2942 11.0914 15.929 11.805C15.115 13.405 13.533 14.5 12.001 14.5C10.931 14.5 9.802 13.907 8.927 12.948C8.59727 12.5877 8.31436 12.1872 8.085 11.756C7.709 11.047 7.49 10.268 7.489 9.5L7.5 6.002ZM18.5 6.5C18.632 6.5 18.723 6.5 18.801 6.511C18.8392 6.51388 18.8766 6.52406 18.911 6.541C18.911 6.541 18.927 6.549 18.948 6.603C18.973 6.667 19 6.787 19 7C19 8.673 18.34 9.907 17.352 10.765L17.498 6.5H18.5ZM6.488 9.5C6.48933 9.91467 6.53767 10.3233 6.633 10.726C5.657 9.867 5 8.646 5 7C5 6.787 5.027 6.667 5.052 6.603C5.072 6.549 5.09 6.541 5.09 6.541C5.1241 6.52418 5.16109 6.514 5.199 6.511C5.277 6.501 5.368 6.5 5.5 6.5H6.498L6.488 9.498V9.5ZM12.5 17C12.5 16.8674 12.4473 16.7402 12.3536 16.6464C12.2598 16.5527 12.1326 16.5 12 16.5C11.8674 16.5 11.7402 16.5527 11.6464 16.6464C11.5527 16.7402 11.5 16.8674 11.5 17V19.5H8C7.86739 19.5 7.74021 19.5527 7.64645 19.6464C7.55268 19.7402 7.5 19.8674 7.5 20C7.5 20.1326 7.55268 20.2598 7.64645 20.3536C7.74021 20.4473 7.86739 20.5 8 20.5H16C16.1326 20.5 16.2598 20.4473 16.3536 20.3536C16.4473 20.2598 16.5 20.1326 16.5 20C16.5 19.8674 16.4473 19.7402 16.3536 19.6464C16.2598 19.5527 16.1326 19.5 16 19.5H12.5V17Z" fill="#FFC107"/>
</svg>
