<svg width="24" height="24" viewBox="0 0 24 24" fill="none" xmlns="http://www.w3.org/2000/svg">
<path fill-rule="evenodd" clip-rule="evenodd" d="M12 2.7494C10.6332 2.74966 9.29871 3.16484 8.17301 3.94002C7.04731 4.71519 6.18345 5.81385 5.69571 7.09064C5.20797 8.36744 5.11932 9.76223 5.4415 11.0905C5.76368 12.4188 6.4815 13.6179 7.50001 14.5294L7.50301 14.5334C8.06001 15.0324 8.48301 15.4104 8.78501 15.6884C9.07001 15.9484 9.29501 16.1624 9.41401 16.3084L9.42601 16.3234C9.64801 16.5964 9.84001 16.8344 9.96801 17.1194C10.095 17.4034 10.143 17.7064 10.199 18.0534L10.202 18.0734C10.231 18.2514 10.242 18.4694 10.247 18.7494H13.753C13.758 18.4694 13.769 18.2514 13.798 18.0734L13.801 18.0534C13.857 17.7064 13.905 17.4034 14.032 17.1194C14.16 16.8344 14.352 16.5964 14.574 16.3234L14.586 16.3084C14.705 16.1624 14.93 15.9484 15.215 15.6884C15.517 15.4104 15.94 15.0324 16.497 14.5334L16.501 14.5294C17.5196 13.6179 18.2374 12.4186 18.5596 11.0903C18.8817 9.76189 18.793 8.36702 18.3051 7.09018C17.8173 5.81334 16.9532 4.71469 15.8274 3.93959C14.7015 3.16449 13.3669 2.74946 12 2.7494ZM13.744 20.2494H10.256C10.26 20.3527 10.2653 20.4451 10.272 20.5264C10.292 20.7514 10.327 20.8334 10.351 20.8744C10.4168 20.9882 10.5112 21.0826 10.625 21.1484C10.665 21.1724 10.748 21.2064 10.973 21.2274C11.208 21.2484 11.519 21.2494 12 21.2494C12.481 21.2494 12.792 21.2494 13.027 21.2274C13.252 21.2074 13.334 21.1724 13.375 21.1484C13.4888 21.0826 13.5833 20.9882 13.649 20.8744C13.673 20.8344 13.708 20.7514 13.728 20.5264C13.7347 20.4451 13.74 20.3527 13.744 20.2494ZM3.75001 9.4994C3.75011 8.12339 4.09438 6.76925 4.75149 5.56027C5.40859 4.3513 6.35766 3.32588 7.51228 2.57737C8.6669 1.82887 9.99041 1.38105 11.3623 1.27469C12.7342 1.16832 14.1109 1.4068 15.3671 1.96839C16.6233 2.52999 17.7191 3.39687 18.5547 4.49012C19.3903 5.58337 19.9391 6.86826 20.1513 8.22781C20.3635 9.58737 20.2323 10.9784 19.7696 12.2743C19.3068 13.5702 18.5273 14.7297 17.502 15.6474C17.0754 16.0272 16.6507 16.4092 16.228 16.7934C16.0787 16.9306 15.932 17.0706 15.788 17.2134L15.752 17.2524C15.492 17.5734 15.435 17.6564 15.402 17.7314C15.368 17.8064 15.344 17.9034 15.279 18.3114C15.253 18.4724 15.25 18.7484 15.25 19.4994V19.5314C15.25 19.9714 15.25 20.3514 15.222 20.6614C15.192 20.9914 15.126 21.3174 14.949 21.6244C14.7515 21.9667 14.4673 22.2509 14.125 22.4484C13.818 22.6254 13.492 22.6914 13.163 22.7214C12.851 22.7494 12.472 22.7494 12.033 22.7494H11.968C11.528 22.7494 11.148 22.7494 10.838 22.7214C10.508 22.6914 10.182 22.6254 9.87501 22.4484C9.53274 22.2509 9.24854 21.9667 9.05101 21.6244C8.87401 21.3174 8.80801 20.9914 8.77801 20.6624C8.75001 20.3504 8.75001 19.9714 8.75001 19.5324V19.4994C8.75001 18.7494 8.74701 18.4724 8.72101 18.3114C8.65601 17.9034 8.63101 17.8064 8.59801 17.7314C8.56501 17.6564 8.50801 17.5734 8.24801 17.2514L8.23801 17.2414L8.21201 17.2124L8.11501 17.1154C8.00216 17.0065 7.88782 16.8991 7.77201 16.7934C7.47701 16.5234 7.06001 16.1504 6.49801 15.6474C5.63236 14.8743 4.94001 13.9269 4.4664 12.8673C3.9928 11.8078 3.74866 10.66 3.75001 9.4994ZM9.89201 13.3494C9.97729 13.3001 10.0715 13.268 10.1691 13.2551C10.2668 13.2421 10.3661 13.2486 10.4613 13.274C10.5565 13.2995 10.6457 13.3434 10.7239 13.4034C10.8021 13.4633 10.8677 13.5381 10.917 13.6234C11.0267 13.8136 11.1845 13.9716 11.3746 14.0815C11.5647 14.1914 11.7804 14.2492 12 14.2492C12.2196 14.2492 12.4353 14.1914 12.6254 14.0815C12.8155 13.9716 12.9734 13.8136 13.083 13.6234C13.1324 13.5381 13.1981 13.4634 13.2763 13.4035C13.3546 13.3436 13.4439 13.2997 13.5391 13.2743C13.6343 13.2489 13.7336 13.2425 13.8313 13.2555C13.929 13.2684 14.0232 13.3005 14.1085 13.3499C14.1938 13.3993 14.2685 13.465 14.3284 13.5432C14.3883 13.6215 14.4322 13.7108 14.4576 13.806C14.483 13.9012 14.4894 14.0005 14.4765 14.0982C14.4635 14.1959 14.4314 14.2901 14.382 14.3754C14.0231 14.9942 13.438 15.4496 12.75 15.6454V16.9994C12.75 17.1983 12.671 17.3891 12.5303 17.5297C12.3897 17.6704 12.1989 17.7494 12 17.7494C11.8011 17.7494 11.6103 17.6704 11.4697 17.5297C11.329 17.3891 11.25 17.1983 11.25 16.9994V15.6454C10.562 15.4496 9.97687 14.9942 9.61801 14.3754C9.56866 14.2901 9.53661 14.1959 9.52368 14.0983C9.51074 14.0006 9.51718 13.9013 9.54263 13.8061C9.56807 13.7109 9.61203 13.6217 9.67197 13.5435C9.73192 13.4653 9.80669 13.3987 9.89201 13.3494Z" fill="#6F42C1"/>
</svg>
