<svg width="13" height="14" viewBox="0 0 13 14" fill="none" xmlns="http://www.w3.org/2000/svg">
<path d="M6.24805 12.2637V11.0137H4.99805V10.3887H6.24805V8.4993C5.4493 8.40971 4.78076 8.06867 4.24242 7.47617C3.70451 6.88326 3.43555 6.18513 3.43555 5.3818C3.43555 4.51388 3.7395 3.77721 4.34742 3.1718C4.95492 2.56638 5.69263 2.26367 6.56055 2.26367C7.42846 2.26367 8.16617 2.56638 8.77367 3.1718C9.38117 3.77721 9.68513 4.51388 9.68555 5.3818C9.68555 6.18513 9.41659 6.88305 8.87867 7.47555C8.34034 8.06846 7.6718 8.40971 6.87305 8.4993V10.3887H8.12305V11.0137H6.87305V12.2637H6.24805ZM6.56242 7.88867C7.25367 7.88867 7.84284 7.64451 8.32992 7.15617C8.81701 6.66742 9.06055 6.07763 9.06055 5.3868C9.06055 4.69596 8.81638 4.1068 8.32805 3.6193C7.83971 3.1318 7.24992 2.88826 6.55867 2.88867C5.86742 2.88909 5.27826 3.13326 4.79117 3.62117C4.30409 4.10992 4.06055 4.69971 4.06055 5.39055C4.06055 6.0818 4.30471 6.67096 4.79305 7.15805C5.2818 7.64513 5.87159 7.88867 6.56242 7.88867Z" fill="#F06292"/>
</svg>
