<svg width="30" height="30" viewBox="0 0 30 30" fill="none" xmlns="http://www.w3.org/2000/svg">
<path d="M29.4466 15.3263C29.4466 14.1142 29.3483 13.2297 29.1354 12.3125H15.2949V17.7831H23.419C23.2553 19.1427 22.3708 21.1901 20.4052 22.5659L20.3777 22.749L24.7538 26.1391L25.057 26.1694C27.8414 23.5978 29.4466 19.8142 29.4466 15.3263Z" fill="#4285F4"/>
<path d="M15.294 29.7399C19.2741 29.7399 22.6155 28.4295 25.0561 26.1692L20.4043 22.5657C19.1595 23.4338 17.4888 24.0398 15.294 24.0398C11.3958 24.0398 8.08716 21.4684 6.90773 17.9141L6.73486 17.9287L2.18451 21.4503L2.125 21.6157C4.54911 26.4312 9.52844 29.7399 15.294 29.7399Z" fill="#34A853"/>
<path d="M6.90784 17.9151C6.59664 16.9979 6.41654 16.015 6.41654 14.9996C6.41654 13.984 6.59664 13.0013 6.89147 12.084L6.88323 11.8887L2.27586 8.31055L2.12511 8.38225C1.12602 10.3806 0.552734 12.6246 0.552734 14.9996C0.552734 17.3745 1.12602 19.6184 2.12511 21.6167L6.90784 17.9151Z" fill="#FBBC05"/>
<path d="M15.294 5.95778C18.0621 5.95778 19.9293 7.15346 20.994 8.15267L25.1543 4.09057C22.5992 1.71558 19.2741 0.257812 15.294 0.257812C9.52844 0.257812 4.54911 3.56641 2.125 8.38189L6.89136 12.0837C8.08716 8.52936 11.3958 5.95778 15.294 5.95778Z" fill="#EB4335"/>
</svg>
