<svg width="14" height="14" viewBox="0 0 14 14" fill="none" xmlns="http://www.w3.org/2000/svg">
<path d="M11.6659 3.46551L6.92593 1.88551C6.84485 1.85848 6.75718 1.85848 6.6761 1.88551L1.9361 3.46551C1.85744 3.49173 1.78904 3.54203 1.74056 3.60929C1.69209 3.67655 1.66601 3.75736 1.66602 3.84026V7.79026C1.66602 7.89502 1.70763 7.99549 1.78171 8.06957C1.85579 8.14365 1.95626 8.18526 2.06102 8.18526C2.16578 8.18526 2.26625 8.14365 2.34032 8.06957C2.4144 7.99549 2.45602 7.89502 2.45602 7.79026V4.38833L4.11452 4.94083C3.67388 5.65272 3.53376 6.51038 3.72492 7.3255C3.91609 8.14061 4.42291 8.84655 5.13412 9.2883C4.24537 9.63689 3.47709 10.2674 2.9152 11.1295C2.88598 11.1729 2.86568 11.2217 2.85549 11.2731C2.8453 11.3244 2.84541 11.3773 2.85583 11.4286C2.86624 11.4799 2.88675 11.5286 2.91616 11.5719C2.94557 11.6152 2.98329 11.6522 3.02714 11.6808C3.07098 11.7094 3.12008 11.729 3.17156 11.7385C3.22305 11.748 3.2759 11.7471 3.32705 11.7359C3.37819 11.7248 3.42662 11.7036 3.4695 11.6736C3.51238 11.6435 3.54886 11.6053 3.57683 11.561C4.32091 10.4195 5.49603 9.76526 6.80102 9.76526C8.106 9.76526 9.28112 10.4195 10.0252 11.561C10.0831 11.6471 10.1726 11.707 10.2743 11.7276C10.376 11.7483 10.4818 11.7281 10.5687 11.6714C10.6556 11.6147 10.7168 11.5261 10.7389 11.4246C10.761 11.3232 10.7423 11.2172 10.6868 11.1295C10.1249 10.2674 9.3537 9.63689 8.46792 9.2883C9.17844 8.84657 9.68478 8.14109 9.87592 7.32657C10.067 6.51206 9.92737 5.65498 9.48751 4.9433L11.6659 4.21749C11.7446 4.19128 11.813 4.14099 11.8615 4.07373C11.91 4.00647 11.9361 3.92565 11.9361 3.84273C11.9361 3.75981 11.91 3.679 11.8615 3.61174C11.813 3.54448 11.7446 3.49418 11.6659 3.46798V3.46551ZM9.17102 6.60526C9.17112 6.97995 9.08239 7.34932 8.9121 7.68307C8.74181 8.01682 8.49482 8.30544 8.19138 8.52525C7.88795 8.74506 7.53672 8.8898 7.16652 8.94758C6.79631 9.00537 6.41769 8.97455 6.0617 8.85767C5.70571 8.74079 5.38251 8.54117 5.11861 8.27519C4.85471 8.00921 4.65763 7.68445 4.54355 7.32755C4.42946 6.97066 4.40162 6.5918 4.46231 6.22206C4.523 5.85232 4.67049 5.50224 4.89267 5.20055L6.6761 5.79305C6.75718 5.82008 6.84485 5.82008 6.92593 5.79305L8.70936 5.20055C9.00942 5.60741 9.17122 6.09972 9.17102 6.60526ZM6.80102 5.00403L3.3102 3.84026L6.80102 2.67649L10.2918 3.84026L6.80102 5.00403Z" fill="#4CAF50"/>
</svg>
