<svg width="700" height="560" viewBox="0 0 700 560" fill="none" xmlns="http://www.w3.org/2000/svg">
<path d="M306.309 265.979C306.309 164.159 388.85 81.6172 490.671 81.6172C592.491 81.6172 675.033 164.159 675.033 265.979V559.806H306.309V265.979Z" fill="#FECE00"/>
<path d="M401.371 205.282V205.282C438.441 256.204 518.965 235.407 526.2 172.838V172.838" stroke="black" stroke-width="7.46478" stroke-linecap="round"/>
<path d="M466.811 182.046L467.699 183.231C476.556 195.039 495.137 191.373 498.845 177.086L499.805 173.387" stroke="black" stroke-width="5.49905" stroke-linecap="round"/>
<path d="M417.318 195.243L418.207 196.428C427.063 208.236 445.644 204.571 449.352 190.284L450.313 186.584" stroke="black" stroke-width="5.49905" stroke-linecap="round"/>
<path fill-rule="evenodd" clip-rule="evenodd" d="M675.516 386.059C675.516 384.998 674.657 384.139 673.596 384.139H591.75C590.689 384.139 589.829 384.998 589.829 386.059V457.724C589.829 458.784 588.97 459.644 587.909 459.644H466.188C465.127 459.644 464.268 460.504 464.268 461.565V557.833C464.268 558.894 465.127 559.754 466.188 559.754H589.829C589.829 559.754 589.829 559.754 589.829 559.754C589.829 559.755 589.83 559.755 589.83 559.755H673.596C674.657 559.755 675.516 558.895 675.516 557.834V386.059Z" fill="#FF7300"/>
<path d="M526.062 517.461L526.665 517.74C554.831 530.793 587.334 530.69 615.418 517.461V517.461" stroke="black" stroke-width="3.6621" stroke-linecap="round"/>
<path d="M574.417 493.991L574.838 495.04C579.032 505.488 593.446 506.456 598.998 496.661L600.436 494.125" stroke="black" stroke-width="3.6621" stroke-linecap="round"/>
<path d="M538.298 493.81L538.719 494.858C542.913 505.306 557.327 506.274 562.879 496.48L564.317 493.943" stroke="black" stroke-width="3.6621" stroke-linecap="round"/>
<path fill-rule="evenodd" clip-rule="evenodd" d="M180.856 231.414C161.269 224.903 147.145 206.429 147.145 184.656C147.145 157.449 169.201 135.393 196.408 135.393H305.789C332.997 135.393 355.053 157.449 355.053 184.656C355.053 206.429 340.928 224.903 321.342 231.414C340.928 237.926 355.053 256.399 355.053 278.172C355.053 305.38 332.997 327.436 305.79 327.436H196.408C169.201 327.436 147.145 305.38 147.145 278.172C147.145 256.399 161.269 237.926 180.856 231.414Z" fill="#FEA1CD"/>
<path d="M333.216 154.749L313.98 137.749C313.289 137.139 313.721 136 314.642 136H315C327.955 136 339.055 146.847 343.941 153.484C344.413 154.125 343.941 155 343.145 155H333.879C333.635 155 333.399 154.911 333.216 154.749Z" fill="#F48FB1"/>
<path d="M254.927 178.41L255.341 179.442C259.469 189.725 273.654 190.677 279.119 181.038L280.534 178.542" stroke="black" stroke-width="3.6042" stroke-linecap="round"/>
<path d="M223.198 178.41L223.613 179.442C227.74 189.725 241.926 190.677 247.391 181.038L248.806 178.542" stroke="black" stroke-width="3.6042" stroke-linecap="round"/>
<path d="M239.064 195.943L239.478 196.975C243.605 207.258 257.791 208.21 263.256 198.571L264.671 196.075" stroke="black" stroke-width="3.6042" stroke-linecap="round"/>
<rect x="84.498" y="327.434" width="235.254" height="232.373" rx="15.3635" fill="#F9F4F1"/>
<path d="M145.473 393.689V393.689C177.2 422.134 225.49 421.999 257.338 393.689V393.689" stroke="black" stroke-width="4.14483" stroke-linecap="round"/>
<path d="M206.442 379.99L206.918 381.177C211.665 393.003 227.979 394.098 234.263 383.012L235.891 380.142" stroke="black" stroke-width="4.14483" stroke-linecap="round"/>
<path d="M165.563 379.785L166.04 380.972C170.786 392.798 187.1 393.893 193.384 382.807L195.012 379.937" stroke="black" stroke-width="4.14483" stroke-linecap="round"/>
<path d="M0 538.979C0 482.602 45.702 436.9 102.078 436.9C110.931 436.9 118.107 444.077 118.107 452.929V541.564C118.107 551.64 109.939 559.808 99.8628 559.808H16.6804C7.46807 559.808 0 552.34 0 543.128V538.979Z" fill="#5EA5CC"/>
<path d="M39.6094 490.938V490.938C55.9495 505.587 80.8201 505.517 97.2225 490.938V490.938" stroke="black" stroke-width="2.88066" stroke-linecap="round"/>
<path d="M83.6819 485.419V485.419C81.1064 479.463 72.6272 479.443 70.0967 485.419V485.419" stroke="black" stroke-width="2.88066" stroke-linecap="round"/>
<path d="M63.5158 485.419V485.419C60.9404 479.463 52.4611 479.443 49.9307 485.419V485.419" stroke="black" stroke-width="2.88066" stroke-linecap="round"/>
<path d="M640.311 276.048C641.149 274.31 643.624 274.31 644.463 276.048L647.231 281.792C656.228 300.454 671.288 315.514 689.95 324.511L695.694 327.279C697.432 328.117 697.432 330.593 695.694 331.431L689.95 334.2C671.288 343.197 656.228 358.256 647.231 376.919L644.463 382.662C643.624 384.401 641.149 384.401 640.311 382.662L637.542 376.919C628.545 358.256 613.486 343.197 594.823 334.2L589.08 331.431C587.341 330.593 587.341 328.117 589.08 327.279L594.823 324.511C613.486 315.514 628.545 300.454 637.542 281.792L640.311 276.048Z" fill="#F9F4F1"/>
<circle cx="337.037" cy="70.096" r="70.096" fill="#FF7300"/>
<path d="M295.268 51.3711V51.3711C315.253 80.0568 357.545 80.5164 378.15 52.2718L378.807 51.3711" stroke="black" stroke-width="3.84088" stroke-linecap="round"/>
<path d="M341.361 41.9032L341.77 42.9218C345.844 53.0727 359.847 54.0126 365.242 44.4972L366.638 42.0332" stroke="black" stroke-width="3.84088" stroke-linecap="round"/>
<path d="M306.273 41.7255L306.682 42.7441C310.756 52.895 324.759 53.8348 330.154 44.3195L331.551 41.8555" stroke="black" stroke-width="3.84088" stroke-linecap="round"/>
</svg>
