<svg width="692" height="769" viewBox="0 0 692 769" fill="none" xmlns="http://www.w3.org/2000/svg">
<path fill-rule="evenodd" clip-rule="evenodd" d="M0 181C0 132.399 39.3989 93 88 93H312C360.601 93 400 132.399 400 181C400 221.692 372.381 255.933 334.866 266C372.381 276.067 400 310.308 400 351C400 388.311 376.78 420.198 344.002 433C376.78 445.802 400 477.689 400 515C400 563.601 360.601 603 312 603H88C39.399 603 0 563.601 0 515C0 477.689 23.22 445.802 55.9976 433C23.22 420.198 0 388.311 0 351C0 310.308 27.6192 276.067 65.1341 266C27.6192 255.933 0 221.692 0 181Z" fill="#FD81BF"/>
<path d="M137 195V195C168.19 236.08 229.723 236.79 261.853 196.441L263 195" stroke="black" stroke-width="7" stroke-linecap="round"/>
<path d="M216.5 168L217.019 169.047C224.231 183.588 245.184 182.951 251.5 168V168" stroke="black" stroke-width="5" stroke-linecap="round"/>
<path d="M151.5 168L152.019 169.047C159.231 183.588 180.184 182.951 186.5 168V168" stroke="black" stroke-width="5" stroke-linecap="round"/>
<path d="M291 461.362C291 359.542 373.542 277 475.362 277C577.183 277 659.724 359.542 659.724 461.362V755.189H291V461.362Z" fill="#FECE00"/>
<path d="M417.5 413L431.097 420.829C463.32 439.381 503.172 438.541 534.584 418.647L543.5 413" stroke="black" stroke-width="7" stroke-linecap="round"/>
<path d="M497 386L497.519 387.047C504.731 401.588 525.684 400.951 532 386V386" stroke="black" stroke-width="5" stroke-linecap="round"/>
<path d="M432 386L432.519 387.047C439.731 401.588 460.684 400.951 467 386V386" stroke="black" stroke-width="5" stroke-linecap="round"/>
<path d="M42.2743 672.217C34.9431 672.217 29 678.16 29 685.491V737.301C29 747.075 36.9248 755 46.6991 755H273.469C283.243 755 291.168 747.075 291.168 737.301V522.699C291.168 512.925 283.243 505 273.469 505H219.266C211.934 505 205.991 510.943 205.991 518.274V589.071C205.991 596.402 200.048 602.345 192.717 602.345H140.173C132.841 602.345 126.898 608.288 126.898 615.619V658.943C126.898 666.274 120.955 672.217 113.624 672.217H42.2743Z" fill="#02AE5C"/>
<circle cx="291" cy="679" r="90" fill="#FF7300"/>
<path d="M237.369 654.959V654.959C263.03 691.79 317.33 692.38 343.786 656.116L344.629 654.959" stroke="black" stroke-width="4.93151" stroke-linecap="round"/>
<path d="M296.551 642.802L297.076 644.11C302.308 657.143 320.287 658.35 327.213 646.132L329.007 642.969" stroke="black" stroke-width="4.93151" stroke-linecap="round"/>
<path d="M251.5 642.573L252.025 643.881C257.257 656.914 275.236 658.121 282.162 645.904L283.956 642.74" stroke="black" stroke-width="4.93151" stroke-linecap="round"/>
<path d="M387.002 135.499C377.738 147.533 373.489 163.406 374.683 178.249C375.877 193.092 382.001 205.965 393 215.5L397 205.5C389.715 199.184 394.952 185.679 394.161 175.847C393.37 166.016 388.025 153.47 394.161 145.499L387.002 135.499Z" fill="black" fill-opacity="0.25"/>
<path d="M673.055 539.633C670.74 539.097 668.992 536.974 669 534.597C669 534.565 669 534.533 669 534.5C669 518.207 655.793 505 639.5 505C623.207 505 610 518.207 610 534.5C610 535.741 610.077 536.965 610.226 538.166C610.281 538.606 609.943 539 609.5 539C595.969 539 585 549.969 585 563.5C585 577.031 595.969 588 609.5 588H667.5C681.031 588 692 577.031 692 563.5C692 551.879 683.91 542.15 673.055 539.633Z" fill="white"/>
<path d="M92.5373 500.306C93.3753 498.568 95.851 498.568 96.6891 500.306L99.4579 506.05C108.454 524.712 123.514 539.772 142.177 548.768L147.92 551.537C149.659 552.375 149.659 554.851 147.92 555.689L142.177 558.458C123.514 567.454 108.454 582.514 99.4579 601.177L96.6891 606.92C95.851 608.659 93.3753 608.659 92.5373 606.92L89.7685 601.177C80.7718 582.514 65.7121 567.454 47.0498 558.458L41.3062 555.689C39.5678 554.851 39.5678 552.375 41.3062 551.537L47.0497 548.768C65.7121 539.772 80.7718 524.712 89.7685 506.05L92.5373 500.306Z" fill="#F9F4F1"/>
<path d="M393.399 1.71488C393.592 1.1644 394.375 1.1755 394.552 1.73122L401.439 23.3468C401.494 23.5172 401.62 23.6551 401.786 23.7236L427.614 34.4257C428.118 34.6346 428.112 35.351 427.605 35.5518L401.795 45.7594C401.624 45.827 401.493 45.9682 401.439 46.1435L394.553 68.2273C394.378 68.7879 393.588 68.799 393.398 68.2434L385.82 46.1279C385.763 45.9617 385.637 45.8283 385.474 45.7621L360.352 35.5497C359.852 35.3463 359.846 34.6397 360.343 34.428L385.483 23.7206C385.64 23.6537 385.762 23.5237 385.819 23.3625L393.399 1.71488Z" fill="#F9F4F1"/>
<path d="M565.35 133.57C534.892 95.9724 497.029 115.661 480.079 131.705C479.034 132.695 477.338 132.606 476.359 131.551C430.755 82.3734 391.013 132.613 390.402 133.57C342.661 208.438 446.321 264.736 472.415 276.979C475.9 278.614 480.497 278.401 483.961 276.722C596.021 222.413 585.21 158.9 565.35 133.57Z" fill="#FF7300"/>
</svg>
