<svg width="40" height="40" viewBox="0 0 40 40" fill="none" xmlns="http://www.w3.org/2000/svg">
<circle cx="19.998" cy="20" r="20" fill="#3E36B5"/>
<path d="M10.8301 22.7976V8.58122C10.8301 8.44468 10.9408 8.33398 11.0773 8.33398H14.5387C14.6752 8.33398 14.7859 8.44468 14.7859 8.58123V16.885C14.7859 17.1053 15.0522 17.2156 15.208 17.0598L23.8614 8.4064C23.9078 8.36003 23.9707 8.33398 24.0362 8.33398H29.2495C29.386 8.33398 29.4967 8.44468 29.4967 8.58122V25.0227C29.4967 30.0912 24.5519 32.1927 22.2031 32.1927H20.4106H18.6182C14.9099 32.1927 11.0859 27.7941 10.8424 25.2694C10.8292 25.1335 10.9408 25.0227 11.0773 25.0227H15.0332C15.1697 25.0227 15.2796 25.1376 15.2888 25.2738C15.623 30.1854 25.7881 29.2783 25.7881 25.0227V13.134C25.7881 12.9137 25.5218 12.8034 25.3661 12.9591L15.3528 22.9724C15.3065 23.0188 15.2436 23.0448 15.178 23.0448H11.0773C10.9408 23.0448 10.8301 22.9341 10.8301 22.7976Z" fill="#FAFAFA"/>
</svg>
