<svg width="13" height="14" viewBox="0 0 13 14" fill="none" xmlns="http://www.w3.org/2000/svg">
<path d="M11.6797 1.99805V5.33138H11.013V3.15338L7.59369 6.54271C7.81369 6.86271 7.99413 7.20049 8.13502 7.55605C8.27591 7.9116 8.34635 8.28116 8.34635 8.66471C8.34635 9.59405 8.02324 10.382 7.37702 11.0287C6.7308 11.6754 5.94324 11.9985 5.01435 11.998C4.08546 11.9976 3.29747 11.6745 2.65035 11.0287C2.00324 10.3829 1.67969 9.59538 1.67969 8.66605C1.67969 7.73671 2.00302 6.94871 2.64969 6.30205C3.29635 5.65538 4.08413 5.33182 5.01302 5.33138C5.39702 5.33138 5.76458 5.40138 6.11569 5.54138C6.4668 5.68094 6.80102 5.86182 7.11835 6.08405L10.5377 2.66471H8.34635V1.99805H11.6797ZM5.01102 5.99805C4.27413 5.99805 3.64569 6.25849 3.12569 6.77938C2.60613 7.30071 2.34635 7.92982 2.34635 8.66671C2.34635 9.40405 2.6068 10.0325 3.12769 10.552C3.64902 11.0716 4.27813 11.3314 5.01502 11.3314C5.75235 11.3314 6.3808 11.0709 6.90035 10.55C7.41991 10.0287 7.67969 9.3996 7.67969 8.66271C7.67969 7.92582 7.41924 7.29738 6.89835 6.77738C6.37747 6.25738 5.74835 5.9976 5.01102 5.99805Z" fill="#2C6BC1"/>
</svg>
