<svg width="408" height="234" viewBox="0 0 408 234" fill="none" xmlns="http://www.w3.org/2000/svg">
<g clip-path="url(#clip0_1049_6409)">
<path d="M324.391 91.4703C324.303 91.4704 324.217 91.4435 324.145 91.3933L205.236 8.58137C204.874 8.33053 204.444 8.19648 204.004 8.19723C203.563 8.19798 203.134 8.3335 202.773 8.58557L84.72 91.3925C84.6266 91.4579 84.511 91.4837 84.3987 91.464C84.2863 91.4442 84.1864 91.3807 84.1209 91.2873C84.0554 91.1939 84.0297 91.0784 84.0494 90.966C84.0692 90.8537 84.1327 90.7538 84.2261 90.6883L202.279 7.88143C202.785 7.52858 203.386 7.33891 204.002 7.33789C204.619 7.33688 205.221 7.52457 205.727 7.87576L324.637 90.6875C324.712 90.7398 324.768 90.8148 324.798 90.9014C324.827 90.9881 324.829 91.0819 324.801 91.1692C324.774 91.2566 324.719 91.3329 324.645 91.387C324.571 91.4412 324.482 91.4704 324.391 91.4703Z" fill="#3F3D56"/>
<path d="M91.4648 94.4051L204.12 10.9141L317.629 100.346L209.924 164.195L151.45 150.866L91.4648 94.4051Z" fill="#E6E6E6"/>
<path d="M156.383 203.632H100.728C100.387 203.632 100.048 203.565 99.7324 203.435C99.4166 203.304 99.1295 203.113 98.8877 202.872C98.6459 202.63 98.4541 202.343 98.3233 202.028C98.1924 201.712 98.125 201.374 98.125 201.032C98.125 200.69 98.1924 200.352 98.3233 200.036C98.4541 199.72 98.6459 199.434 98.8877 199.192C99.1295 198.951 99.4166 198.759 99.7324 198.629C100.048 198.498 100.387 198.431 100.728 198.432H156.383C156.724 198.431 157.063 198.498 157.379 198.629C157.695 198.759 157.982 198.951 158.223 199.192C158.465 199.434 158.657 199.72 158.788 200.036C158.919 200.352 158.986 200.69 158.986 201.032C158.986 201.374 158.919 201.712 158.788 202.028C158.657 202.343 158.465 202.63 158.223 202.872C157.982 203.113 157.695 203.304 157.379 203.435C157.063 203.565 156.724 203.632 156.383 203.632Z" fill="#6C63FF"/>
<path d="M120.696 192.454H100.728C100.387 192.455 100.048 192.388 99.7324 192.257C99.4166 192.127 99.1295 191.935 98.8877 191.694C98.6459 191.452 98.4541 191.166 98.3233 190.85C98.1924 190.534 98.125 190.196 98.125 189.854C98.125 189.512 98.1924 189.174 98.3233 188.858C98.4541 188.543 98.6459 188.256 98.8877 188.014C99.1295 187.773 99.4166 187.581 99.7324 187.451C100.048 187.32 100.387 187.253 100.728 187.254H120.696C121.038 187.253 121.376 187.32 121.692 187.451C122.008 187.581 122.295 187.773 122.537 188.014C122.779 188.256 122.97 188.543 123.101 188.858C123.232 189.174 123.299 189.512 123.299 189.854C123.299 190.196 123.232 190.534 123.101 190.85C122.97 191.166 122.779 191.452 122.537 191.694C122.295 191.935 122.008 192.127 121.692 192.257C121.376 192.388 121.038 192.455 120.696 192.454Z" fill="#6C63FF"/>
<path d="M205.7 140.909C205.277 140.91 204.858 140.827 204.466 140.667L134.988 111.839V21.6015C134.989 20.8036 135.307 20.0386 135.871 19.4744C136.435 18.9101 137.2 18.5927 137.998 18.5918H271.286C272.084 18.5927 272.849 18.9101 273.413 19.4744C273.977 20.0386 274.295 20.8036 274.295 21.6015V111.902L274.165 111.958L206.971 140.653C206.568 140.822 206.136 140.909 205.7 140.909Z" fill="white"/>
<path d="M205.704 141.124C205.253 141.124 204.806 141.037 204.388 140.867L134.777 111.983V21.6017C134.778 20.7467 135.118 19.9271 135.723 19.3225C136.327 18.718 137.147 18.3779 138.002 18.377H271.29C272.145 18.3779 272.964 18.718 273.569 19.3225C274.173 19.9271 274.514 20.7467 274.515 21.6017V112.044L207.059 140.851C206.63 141.032 206.169 141.124 205.704 141.124ZM135.637 111.408L204.716 140.072C205.36 140.333 206.082 140.329 206.723 140.06L273.655 111.476V21.6017C273.654 20.9747 273.404 20.3736 272.961 19.9303C272.518 19.487 271.917 19.2376 271.29 19.2369H138.002C137.375 19.2376 136.774 19.487 136.331 19.9303C135.887 20.3736 135.638 20.9747 135.637 21.6017L135.637 111.408Z" fill="#3F3D56"/>
<path d="M323.531 90.6113H323.445L274.085 111.688L206.551 140.525C206.287 140.636 206.004 140.694 205.718 140.696C205.432 140.697 205.148 140.642 204.883 140.534L135.208 111.628L84.6359 90.6457L84.5587 90.6113H84.4726C83.6747 90.6122 82.9096 90.9296 82.3454 91.4938C81.7812 92.0581 81.4638 92.8231 81.4629 93.6211V224.329C81.4638 225.127 81.7812 225.892 82.3454 226.456C82.9096 227.021 83.6747 227.338 84.4726 227.339H323.531C324.329 227.338 325.094 227.021 325.658 226.456C326.222 225.892 326.54 225.127 326.54 224.329V93.6211C326.54 92.8231 326.222 92.0581 325.658 91.4938C325.094 90.9296 324.329 90.6122 323.531 90.6113ZM325.68 224.329C325.68 224.899 325.454 225.446 325.051 225.849C324.647 226.252 324.101 226.479 323.531 226.479H84.4726C83.9025 226.479 83.3558 226.252 82.9527 225.849C82.5496 225.446 82.323 224.899 82.3228 224.329V93.6211C82.3236 93.0651 82.5392 92.531 82.9247 92.1303C83.3101 91.7297 83.8355 91.4935 84.3909 91.4712L135.208 112.557L204.552 141.329C205.303 141.635 206.144 141.63 206.891 141.317L274.085 112.621L323.617 91.4712C324.171 91.4952 324.695 91.732 325.08 92.1324C325.464 92.5328 325.679 93.066 325.68 93.6211V224.329Z" fill="#3F3D56"/>
<path d="M205.009 115.32C202.444 115.325 199.947 114.495 197.894 112.957L197.767 112.861L170.976 92.3489C169.735 91.3982 168.694 90.2125 167.911 88.8593C167.129 87.5062 166.621 86.0122 166.415 84.4626C166.21 82.9131 166.312 81.3383 166.716 79.8282C167.119 78.318 167.816 76.9022 168.767 75.6614C169.718 74.4207 170.903 73.3793 172.257 72.5968C173.61 71.8143 175.104 71.306 176.653 71.1008C178.203 70.8957 179.778 70.9978 181.288 71.4013C182.798 71.8048 184.214 72.5018 185.455 73.4525L202.808 86.7588L243.817 33.2774C244.768 32.0369 245.954 30.996 247.307 30.214C248.661 29.4319 250.155 28.9241 251.704 28.7196C253.254 28.515 254.829 28.6177 256.339 29.0217C257.849 29.4258 259.264 30.1233 260.505 31.0745L260.25 31.4207L260.511 31.0795C263.014 33.0025 264.651 35.8395 265.064 38.9681C265.477 42.0967 264.632 45.2614 262.714 47.7678L214.478 110.675C213.363 112.124 211.928 113.297 210.286 114.103C208.644 114.909 206.838 115.325 205.009 115.32Z" fill="#6C63FF"/>
</g>
<defs>
<clipPath id="clip0_1049_6409">
<rect width="245.078" height="220" fill="white" transform="translate(81.4629 7.33789)"/>
</clipPath>
</defs>
</svg>
