<svg width="14" height="14" viewBox="0 0 14 14" fill="none" xmlns="http://www.w3.org/2000/svg">
<path d="M3.58659 8.66667H1.91992M1.91992 12H8.58659C9.10437 12 9.36326 12 9.56714 11.9156C9.70204 11.8597 9.82462 11.7778 9.92785 11.6746C10.0311 11.5714 10.113 11.4488 10.1688 11.3139C10.2533 11.11 10.2533 10.8511 10.2533 10.3333C10.2533 9.81556 10.2533 9.55667 10.1688 9.35278C10.113 9.21788 10.0311 9.09531 9.92785 8.99207C9.82462 8.88883 9.70204 8.80695 9.56714 8.75111C9.36326 8.66667 9.10437 8.66667 8.58659 8.66667H7.47548H10.2533C10.771 8.66667 11.0299 8.66667 11.2338 8.58222C11.3687 8.52638 11.4913 8.4445 11.5945 8.34126C11.6978 8.23803 11.7796 8.11546 11.8355 7.98056C11.9199 7.77667 11.9199 7.51778 11.9199 7C11.9199 6.48222 11.9199 6.22333 11.8355 6.01944C11.7796 5.88454 11.6978 5.76197 11.5945 5.65874C11.4913 5.5555 11.3687 5.47362 11.2338 5.41778C11.0299 5.33333 10.771 5.33333 10.2533 5.33333H1.91992H8.03103C8.54881 5.33333 8.8077 5.33333 9.01159 5.24889C9.14649 5.19305 9.26906 5.11117 9.3723 5.00793C9.47554 4.90469 9.55741 4.78212 9.61326 4.64722C9.6977 4.44333 9.6977 4.18444 9.6977 3.66667C9.6977 3.14889 9.6977 2.89 9.61326 2.68611C9.55741 2.55121 9.47554 2.42864 9.3723 2.3254C9.26906 2.22216 9.14649 2.14028 9.01159 2.08444C8.8077 2 8.54881 2 8.03103 2H1.91992" stroke="#FF9800" stroke-width="0.833333" stroke-linecap="round" stroke-linejoin="round"/>
<path d="M7.47591 5.33398V8.77287C7.47591 9.39232 7.47591 9.70176 7.2948 9.76732C7.11313 9.83398 6.90813 9.59843 6.49869 9.12843L6.23091 8.82176C6.0348 8.59676 5.93702 8.48454 5.80924 8.48454C5.68147 8.48454 5.58369 8.59676 5.38702 8.82176L5.12036 9.12843C4.71036 9.59843 4.50536 9.83398 4.32424 9.76732C4.14258 9.70176 4.14258 9.39232 4.14258 8.77287V5.33398" stroke="#FF9800" stroke-width="0.833333" stroke-linecap="round" stroke-linejoin="round"/>
</svg>
