<svg width="22" height="19" viewBox="0 0 22 19" fill="none" xmlns="http://www.w3.org/2000/svg">
<path d="M4.83885 7.70703C2.63738 8.23058 1 10.2098 1 12.5715C1 15.3329 3.23857 17.5715 6 17.5715C6.4737 17.5715 6.932 17.5057 7.36625 17.3826" stroke="#282828" stroke-opacity="0.75" stroke-width="1.5" stroke-linecap="round" stroke-linejoin="round"/>
<path d="M17.0274 7.70703C19.2289 8.23058 20.8662 10.2098 20.8662 12.5715C20.8662 15.3329 18.6277 17.5715 15.8662 17.5715C15.3925 17.5715 14.9342 17.5057 14.5 17.3826" stroke="#282828" stroke-opacity="0.75" stroke-width="1.5" stroke-linecap="round" stroke-linejoin="round"/>
<path d="M17 7.57227C17 4.25857 14.3137 1.57227 11 1.57227C7.6863 1.57227 5 4.25857 5 7.57227" stroke="#282828" stroke-opacity="0.75" stroke-width="1.5" stroke-linecap="round" stroke-linejoin="round"/>
<path d="M7.5332 11.5119L11.0005 8.0332L14.5664 11.5714" stroke="#282828" stroke-opacity="0.75" stroke-width="1.5" stroke-linecap="round" stroke-linejoin="round"/>
<path d="M11 16.5718V9.80273" stroke="#282828" stroke-opacity="0.75" stroke-width="1.5" stroke-linecap="round" stroke-linejoin="round"/>
</svg>
